<svg width="33" height="33" viewBox="0 0 33 33" fill="none" xmlns="http://www.w3.org/2000/svg">
<path d="M30.7321 0.261719H1.27302C0.564559 0.261719 -0.0078125 0.83409 -0.0078125 1.54255V31.0017C-0.0078125 31.7101 0.564559 32.2825 1.27302 32.2825H30.7321C31.4406 32.2825 32.013 31.7101 32.013 31.0017V1.54255C32.013 0.83409 31.4406 0.261719 30.7321 0.261719ZM27.0337 9.60778H24.4761C22.4708 9.60778 22.0825 10.5604 22.0825 11.9613V15.0473H26.8696L26.2452 19.8784H22.0825V32.2825H17.0913V19.8825H12.9166V15.0473H17.0913V11.485C17.0913 7.35032 19.6169 5.09686 23.3073 5.09686C25.0765 5.09686 26.5934 5.22894 27.0377 5.28898V9.60778H27.0337Z" fill="white"/>
</svg>
